<svg width="40" height="40" viewBox="0 0 40 40" fill="none" xmlns="http://www.w3.org/2000/svg">
<rect width="40" height="40"/>
<path d="M24.9043 5.62825C32.4709 5.62825 38.6048 11.7622 38.6048 19.3287C38.6048 27.0749 32.2378 33.1326 24.7466 33.0311L1.3954 34.2794L4.02646 26.2735C2.36821 24.0988 1.39563 21.3894 1.39563 18.4817C1.39563 11.3829 7.15032 5.62825 14.2491 5.62825H24.9043Z" fill="#F53C5E"/>
<path fill-rule="evenodd" clip-rule="evenodd" d="M15.4226 18.6218V18.7695C15.4226 20.8897 17.1414 22.6085 19.2616 22.6085C21.3819 22.6085 23.1007 20.8897 23.1007 18.7695V18.6218H26.9397V18.7695C26.9397 23.0099 23.5021 26.4475 19.2616 26.4475C15.0211 26.4475 11.5836 23.0099 11.5836 18.7695V18.6218H15.4226Z" fill="white"/>
</svg>
